{"title":"Pizza Maffia-AC3-XviD-DVDRip 2011 TBS","uid":6443144,"size":1571741491,"categoryP":"video","categoryS":"movies","magnet":"?xt=urn:btih:fb61e02937b5e1dc78af11ac6f7d522e8af191a4&amp;dn=Pizza+Maffia-AC3-XviD-DVDRip+2011+TBS&amp;tr=udp%3A%2F%2Ftracker.openbittorrent.com%3A80&amp;tr=udp%3A%2F%2Fopen.demonii.com%3A1337&amp;tr=udp%3A%2F%2Ftracker.coppersurfer.tk%3A6969&amp;tr=udp%3A%2F%2Fexodus.desync.com%3A6969","seeders":0,"leechers":1,"uploader":"FatFreddy30","files":-1,"time":1307037588,"description":"Nederland\nKomedie / Drama\n85 minuten\n\ngeregisseerd door Tim Oliehoek\nmet Iliass Ojja, Mamoun Elyounoussi en Sallie Harmsen\n\nBram is goed bevriend met zijn neef Haas. Faris, de oom van Haas runt de pizzeria van Brams vader. Wanneer Brams vader slaande ruzie krijgt met Faris, begint Faris zijn eigen pizzeria aan de overkant van de straat. Een ware pizzaoorlog ontstaat en Bram en Haas komen hierin lijnrecht tegenover elkaar te staan...\n &lt;a href=&quot;\nhttp://www.moviemeter.nl/film/66694&quot; rel=&quot;nofollow&quot; target=&quot;_NEW&quot;&gt;\nhttp://www.moviemeter.nl/film/66694&lt;/a&gt;\n &lt;a href=&quot;\nhttp://www.imdb.com/title/tt1568339/&quot; rel=&quot;nofollow&quot; target=&quot;_NEW&quot;&gt;\nhttp://www.imdb.com/title/tt1568339/&lt;/a&gt;\n\nAudio: Dutch-Nederlands  Subs:Dutch-Nederlands voor niet Nederlands gesproken delen.\n\nGeneral\nComplete name                    : Pizza Maffia-AC3-XviD-DVDRip 2011 TBS\\Pizza Maffia-AC3-XviD-DVDRip 2011.avi\nFormat                           : AVI\nFormat/Info                      : Audio Video Interleave\nFile size                        : 1.46 GiB\nDuration                         : 1h 21mn\nOverall bit rate                 : 2 559 Kbps\nWriting application              : VirtualDubMod 1.5.4.1 (build 2178/release)\nWriting library                  : VirtualDubMod build 2178/release\n\nVideo\nID                               : 0\nFormat                           : MPEG-4 Visual\nFormat profile                   : Simple@L3\nFormat settings, BVOP            : No\nFormat settings, QPel            : No\nFormat settings, GMC             : No warppoints\nFormat settings, Matrix          : Default (H.263)\nCodec ID                         : XVID\nCodec ID/Hint                    : XviD\nDuration                         : 1h 21mn\nBit rate                         : 2 101 Kbps\nWidth                            : 720 pixels\nHeight                           : 304 pixels\nDisplay aspect ratio             : 2.35:1\nFrame rate                       : 25.000 fps\nColor space                      : YUV\nChroma subsampling               : 4:2:0\nBit depth                        : 8 bits\nScan type                        : Progressive\nCompression mode                 : Lossy\nBits/(Pixel*Frame)               : 0.384\nStream size                      : 1.20 GiB (82%)\nWriting library                  : XviD 1.1.2 (UTC 2006-11-01)\n\nAudio\nID                               : 1\nFormat                           : AC-3\nFormat/Info                      : Audio Coding 3\nMode extension                   : CM (complete main)\nCodec ID                         : 2000\nDuration                         : 1h 21mn\nBit rate mode                    : Constant\nBit rate                         : 448 Kbps\nChannel(s)                       : 6 channels\nChannel positions                : Front: L C R, Side: L R, LFE\nSampling rate                    : 48.0 KHz\nBit depth                        : 16 bits\nCompression mode                 : Lossy\nStream size                      : 261 MiB (18%)\nAlignment                        : Split accross interleaves\nInterleave, duration             : 40 ms (1.00 video frame)\nInterleave, preload duration     : 500 ms\n\nThanks to Happy4all.\n\nEnjoy...\n\nTBS.","torrent":{"xt":"urn:btih:fb61e02937b5e1dc78af11ac6f7d522e8af191a4","amp;dn":"Pizza+Maffia-AC3-XviD-DVDRip+2011+TBS","amp;tr":["udp%3A%2F%2Ftracker.openbittorrent.com%3A80","udp%3A%2F%2Fopen.demonii.com%3A1337","udp%3A%2F%2Ftracker.coppersurfer.tk%3A6969","udp%3A%2F%2Fexodus.desync.com%3A6969"],"infoHash":"fb61e02937b5e1dc78af11ac6f7d522e8af191a4","infoHashBuffer":{"type":"Buffer","data":[251,97,224,41,55,181,225,220,120,175,17,172,111,125,82,46,138,241,145,164]},"announce":[],"urlList":[]}}